<svg xmlns="http://www.w3.org/2000/svg" version="1.1" xmlns:xlink="http://www.w3.org/1999/xlink" xmlns:svgjs="http://svgjs.dev/svgjs" width="100%" height="100%" viewBox="0 0 1000 600"><rect width="1000" height="600" x="0" y="0" fill="#ffffff"/><g><circle r="166.66666666666666" cx="303.8050181070963" cy="326.02726286250925" fill="#6136bf" transform="matrix(0.9114881900037636,0,0,0.9114881900037634,0,2.829992067854093)"/><path d="M330.9056304042746 356.105334792775L330.9056304042746 251.0272838362409L350.50478268722645 251.0272838362409L350.50478268722645 355.8162617502536Q350.50478268722645 377.06313037557754 337.7566615120321 389.03075433596405Q325.0085403368377 401.0272856006028 303.76167171151377 401.0272856006028L303.76167171151377 401.0272856006028Q281.7053985671298 401.0272856006028 269.41979425996976 389.7534369422676Q257.1052826485575 378.47958828393246 257.1052826485575 358.157753394677L257.1052826485575 358.157753394677L276.61771301875297 358.157753394677Q276.61771301875297 370.8480599613671 283.584373343519 377.9592568073939Q290.55103366828513 385.0704536534207 303.76167171151377 385.0704536534207L303.76167171151377 385.0704536534207Q315.84492488890885 385.0704536534207 323.33191669021346 377.46783263510747Q330.790001187266 369.8363043125421 330.9056304042746 356.105334792775L330.9056304042746 356.105334792775Z " fill="#ffffff" transform="matrix(0.9114881900037636,0,0,0.9114881900037634,0,2.829992067854093)"/><path d="M569.8517441426834 285.542854621885L583.9304637419775 285.542854621885L583.9304637419775 377.30323443725274Q583.9304637419775 401.0272826713933 562.4122978413668 401.0272826713933L562.4122978413668 401.0272826713933Q557.7626439030439 401.0272826713933 553.8050314811226 399.6648259359778L553.8050314811226 399.6648259359778L553.8050314811226 388.4191512944526Q556.2488030859156 389.024687621304 560.2064155078369 389.024687621304L560.2064155078369 389.024687621304Q564.9209483383224 389.024687621304 567.3863462405029 386.47278452957323Q569.8517441426834 383.9208814378426 569.8517441426834 377.62762889806595L569.8517441426834 377.62762889806595L569.8517441426834 285.542854621885ZM568.4027822177177 263.72192055784865L568.4027822177177 263.72192055784865Q568.4027822177177 260.36984446277864 570.5005330643098 257.9909517501483Q572.5982839109021 255.59043274013047 576.6207752249861 255.59043274013047L576.6207752249861 255.59043274013047Q580.7297717286203 255.59043274013047 582.8491488726 257.94769915537324Q584.9901523139673 260.304965570616 584.9901523139673 263.72192055784865Q584.9901523139673 267.1388755450813 582.8491488726 269.43126306816146Q580.7297717286203 271.70202429385404 576.6207752249861 271.70202429385404Q572.5117787213519 271.70202429385404 570.4572804695348 269.43126306816146Q568.4027822177177 267.1388755450813 568.4027822177177 263.72192055784865ZM602.8534739560823 326.913961524265L602.8534739560823 325.9191518444378Q602.8534739560823 313.8300516047983 607.611259381343 304.1630966725641Q612.3690448066036 294.51776803771753 620.8465533825225 289.2625777725433Q629.3240619584415 284.0290138047566 640.1804632469907 284.0290138047566L640.1804632469907 284.0290138047566Q656.9840963171158 284.0290138047566 667.3647190631391 295.6639617992576Q677.7453418091623 307.29890979375864 677.7453418091623 326.61119336083937L677.7453418091623 326.61119336083937L677.7453418091623 327.584376743279Q677.7453418091623 339.6085980907559 673.1389404656145 349.14579523866473Q668.5541654194543 358.6829923865736 659.9901516539851 364.00306154391046Q651.4477641859035 369.32313070124746 640.3318473287036 369.32313070124746L640.3318473287036 369.32313070124746Q623.6147194481287 369.32313070124746 613.2340967021055 357.6881827067464Q602.8534739560823 346.07486100963297 602.8534739560823 326.913961524265L602.8534739560823 326.913961524265ZM616.9970724475389 327.584376743279L616.9970724475389 327.584376743279Q616.9970724475389 341.2738229895972 623.3552038794782 349.5566948890282Q629.6917090140298 357.83956678845925 640.3318473287036 357.83956678845925L640.3318473287036 357.83956678845925Q651.0584908329276 357.83956678845925 657.3733696700917 349.4485634020905Q663.6882485072558 341.03593371833415 663.6882485072558 325.9191518444378L663.6882485072558 325.9191518444378Q663.6882485072558 312.3810896798325 657.2436118857664 303.9900862934637Q650.8206015616646 295.57745660970744 640.1804632469907 295.57745660970744L640.1804632469907 295.57745660970744Q629.7782142035801 295.57745660970744 623.3768301768657 303.86032850913847Q616.9970724475389 312.164826705957 616.9970724475389 327.584376743279ZM765.0290780653075 326.3733040895763L765.0290780653075 327.584376743279Q765.0290780653075 346.4425080652212 756.3569328129007 357.8828193832343Q747.6847875604938 369.32313070124746 733.0870368238986 369.32313070124746L733.0870368238986 369.32313070124746Q717.5161027048638 369.32313070124746 708.9953415341697 358.31534533098534L708.9953415341697 358.31534533098534L708.3033000177682 367.80928988411904L695.3924004774018 367.80928988411904L695.3924004774018 251.02728399135776L709.4494937793082 251.02728399135776L709.4494937793082 294.5826469298802Q717.9702549500023 284.0290138047566 732.9356527421858 284.0290138047566Q747.9226768317568 284.0290138047566 756.4650642998384 295.3611936358319Q765.0290780653075 306.67174716951973 765.0290780653075 326.3733040895763L765.0290780653075 326.3733040895763ZM750.9719847634011 325.9840307366004L750.9719847634011 325.9840307366004Q750.9719847634011 311.62416927126833 745.4140263348012 303.7954496169758Q739.8560679062012 295.9667299626833 729.4538188627905 295.9667299626833L729.4538188627905 295.9667299626833Q715.5264833452093 295.9667299626833 709.4494937793082 308.87762950304966L709.4494937793082 308.87762950304966L709.4494937793082 344.4745150029544Q715.9157566981852 357.38541454332073 729.6052029445033 357.38541454332073L729.6052029445033 357.38541454332073Q739.7046838244884 357.38541454332073 745.3275211452509 349.5566948890282Q750.9719847634011 341.7279752347357 750.9719847634011 325.9840307366004ZM866.6726757867849 312.68385784325824L866.6726757867849 353.2980443370741Q861.0498384660224 361.3430269652421 850.9719838834247 365.34389198193855Q840.8941293008273 369.32313070124746 827.5290775153223 369.32313070124746L827.5290775153223 369.32313070124746Q813.991015350717 369.32313070124746 803.5022611177561 362.9866255666958Q793.0135068847952 356.62849413475647 787.2609117797073 344.9286672480929Q781.529942972007 333.20721406404164 781.3785588902941 317.78766402671965L781.3785588902941 317.78766402671965L781.3785588902941 308.1207090944855Q781.3785588902941 283.12070931447954 793.0351331821827 269.34475787861123Q804.7133337714589 255.59043274013047 825.8422263190936 255.59043274013047L825.8422263190936 255.59043274013047Q843.1865168239075 255.59043274013047 853.7617762464185 264.4572146690253Q864.3154093715422 273.3023703005326 866.6726757867849 289.565345935969L866.6726757867849 289.565345935969L852.0749250501898 289.565345935969Q847.9659285465556 267.5930277902198 825.9287315086439 267.5930277902198L825.9287315086439 267.5930277902198Q811.2444755824985 267.5930277902198 803.6968977942441 277.9087716440804Q796.1276937086021 288.20288920055344 796.041188519052 307.75306203889716L796.041188519052 307.75306203889716L796.041188519052 316.79285434689245Q796.041188519052 335.4130963975715 804.561949689746 346.3992554704462Q813.08271086044 357.38541454332073 827.593956407485 357.38541454332073L827.593956407485 357.38541454332073Q835.8119494147535 357.38541454332073 841.9754441702047 355.56880556276667Q848.1173126282685 353.7521965822126 852.16143023974 349.40531080731535L852.16143023974 349.40531080731535L852.16143023974 324.55669510902226L826.5342678354951 324.55669510902226L826.5342678354951 312.68385784325824L866.6726757867849 312.68385784325824ZM885.0766548635885 326.913961524265L885.0766548635885 325.9191518444378Q885.0766548635885 313.8300516047983 889.8344402888492 304.1630966725641Q894.5922257141099 294.51776803771753 903.0697342900289 289.2625777725433Q911.5472428659479 284.0290138047566 922.4036441544971 284.0290138047566L922.4036441544971 284.0290138047566Q939.2072772246221 284.0290138047566 949.5878999706454 295.6639617992576Q959.9685227166686 307.29890979375864 959.9685227166686 326.61119336083937L959.9685227166686 326.61119336083937L959.9685227166686 327.584376743279Q959.9685227166686 339.6085980907559 955.3621213731208 349.14579523866473Q950.7773463269606 358.6829923865736 942.2133325614914 364.00306154391046Q933.6709450934098 369.32313070124746 922.55502823621 369.32313070124746L922.55502823621 369.32313070124746Q905.837900355635 369.32313070124746 895.4572776096119 357.6881827067464Q885.0766548635885 346.07486100963297 885.0766548635885 326.913961524265L885.0766548635885 326.913961524265ZM899.2202533550452 327.584376743279L899.2202533550452 327.584376743279Q899.2202533550452 341.2738229895972 905.5783847869844 349.5566948890282Q911.9148899215362 357.83956678845925 922.55502823621 357.83956678845925L922.55502823621 357.83956678845925Q933.2816717404339 357.83956678845925 939.596550577598 349.4485634020905Q945.9114294147622 341.03593371833415 945.9114294147622 325.9191518444378L945.9114294147622 325.9191518444378Q945.9114294147622 312.3810896798325 939.4667927932727 303.9900862934637Q933.0437824691709 295.57745660970744 922.4036441544971 295.57745660970744L922.4036441544971 295.57745660970744Q912.0013951110864 295.57745660970744 905.6000110843719 303.86032850913847Q899.2202533550452 312.164826705957 899.2202533550452 327.584376743279Z " fill="#6136bf" transform="matrix(0.9114881900037636,0,0,0.9114881900037634,0,2.829992067854093)"/></g></svg>