<?xml version="1.0" encoding="UTF-8"?>
<!DOCTYPE svg PUBLIC "-//W3C//DTD SVG 1.1//EN" "http://www.w3.org/Graphics/SVG/1.1/DTD/svg11.dtd">
<svg xmlns="http://www.w3.org/2000/svg" version="1.1" width="751px" height="306px" style="shape-rendering:geometricPrecision; text-rendering:geometricPrecision; image-rendering:optimizeQuality; fill-rule:evenodd; clip-rule:evenodd" xmlns:xlink="http://www.w3.org/1999/xlink">
<g><path style="opacity:0.995" fill="#6136bf" d="M 301.5,124.5 C 301.5,124.833 301.5,125.167 301.5,125.5C 301.717,129.705 302.383,133.705 303.5,137.5C 303.5,145.833 303.5,154.167 303.5,162.5C 295.456,230.382 259.122,275.548 194.5,298C 173.858,304.021 152.858,305.854 131.5,303.5C 130.5,303.5 129.5,303.5 128.5,303.5C 73.3065,292.812 34.1398,261.812 11,210.5C 5.17677,195.19 1.34343,179.523 -0.5,163.5C -0.5,154.5 -0.5,145.5 -0.5,136.5C 1.73353,127.003 3.73353,117.336 5.5,107.5C 33.0632,35.8092 85.3965,0.309166 162.5,1C 236.669,11.0103 283.003,52.1769 301.5,124.5 Z M 193.5,182.5 C 193.5,183.5 193.5,184.5 193.5,185.5C 191.656,187.279 190.99,189.612 191.5,192.5C 191.5,192.833 191.5,193.167 191.5,193.5C 177.031,217.967 156.365,224.967 129.5,214.5C 124.58,211.584 120.247,207.918 116.5,203.5C 114.075,198.65 111.741,193.983 109.5,189.5C 109.5,188.833 109.5,188.167 109.5,187.5C 109.5,186.167 109.5,184.833 109.5,183.5C 114.833,183.5 120.167,183.5 125.5,183.5C 125.18,186.898 125.513,190.232 126.5,193.5C 128.833,197.167 131.167,200.833 133.5,204.5C 144.833,208.5 156.167,208.5 167.5,204.5C 171.733,201.038 174.733,196.705 176.5,191.5C 177.5,156.173 177.833,120.84 177.5,85.5C 182.833,85.5 188.167,85.5 193.5,85.5C 193.5,117.833 193.5,150.167 193.5,182.5 Z"/></g>
<g><path style="opacity:0.174" fill="#e9e6ee" d="M 129.5,-0.5 C 144.167,-0.5 158.833,-0.5 173.5,-0.5C 195.172,3.73258 215.838,11.3993 235.5,22.5C 269.255,44.9965 290.922,75.9965 300.5,115.5C 301.484,118.428 301.817,121.428 301.5,124.5C 283.003,52.1769 236.669,11.0103 162.5,1C 85.3965,0.309166 33.0632,35.8092 5.5,107.5C 6.5436,101.364 8.21027,95.3635 10.5,89.5C 22.9846,61.6776 41.9846,39.3443 67.5,22.5C 87.1666,11.3977 107.833,3.73108 129.5,-0.5 Z"/></g>
<g><path style="opacity:0.388" fill="#dcd5ea" d="M 521.5,84.5 C 521.167,84.5 520.833,84.5 520.5,84.5C 516.5,84.5 512.5,84.5 508.5,84.5C 508.5,119.833 508.5,155.167 508.5,190.5C 512.5,190.5 516.5,190.5 520.5,190.5C 516.366,191.485 512.032,191.818 507.5,191.5C 507.5,155.5 507.5,119.5 507.5,83.5C 512.363,83.1805 517.03,83.5139 521.5,84.5 Z"/></g>
<g><path style="opacity:1" fill="#663cc0" d="M 520.5,84.5 C 520.168,97.5171 520.501,110.517 521.5,123.5C 522.107,123.376 522.44,123.043 522.5,122.5C 524.167,121.5 525.5,120.167 526.5,118.5C 528.027,118.573 529.027,117.906 529.5,116.5C 535.293,113.61 541.293,112.944 547.5,114.5C 549.905,115.768 552.572,116.435 555.5,116.5C 555.973,117.906 556.973,118.573 558.5,118.5C 560.167,120.833 562.167,122.833 564.5,124.5C 564.427,126.027 565.094,127.027 566.5,127.5C 566.66,129.153 567.326,130.486 568.5,131.5C 572.432,141.807 573.432,152.474 571.5,163.5C 570.232,165.905 569.565,168.572 569.5,171.5C 568.069,172.78 567.402,174.447 567.5,176.5C 565.75,177.659 564.75,179.326 564.5,181.5C 562.167,183.167 560.167,185.167 558.5,187.5C 556.973,187.427 555.973,188.094 555.5,189.5C 551.43,191.889 546.93,192.889 542,192.5C 538.195,192.696 534.695,192.03 531.5,190.5C 530.486,189.326 529.153,188.66 527.5,188.5C 527.027,187.094 526.027,186.427 524.5,186.5C 523.5,186.167 522.833,185.5 522.5,184.5C 522.217,183.711 521.717,183.044 521,182.5C 520.505,184.473 520.338,186.473 520.5,188.5C 520.5,189.167 520.5,189.833 520.5,190.5C 516.5,190.5 512.5,190.5 508.5,190.5C 508.5,155.167 508.5,119.833 508.5,84.5C 512.5,84.5 516.5,84.5 520.5,84.5 Z M 537.5,125.5 C 540.167,125.833 542.833,126.167 545.5,126.5C 546.514,127.674 547.847,128.34 549.5,128.5C 550.5,130.167 551.833,131.5 553.5,132.5C 553.328,133.492 553.662,134.158 554.5,134.5C 554.66,136.153 555.326,137.486 556.5,138.5C 558.585,146.766 558.918,155.099 557.5,163.5C 556.766,164.708 556.433,166.041 556.5,167.5C 554.223,172.777 550.556,176.777 545.5,179.5C 542.904,180.265 540.237,180.599 537.5,180.5C 535.401,179.388 533.067,178.721 530.5,178.5C 529.738,176.738 528.404,175.738 526.5,175.5C 526.167,174.5 525.5,173.833 524.5,173.5C 524.573,171.973 523.906,170.973 522.5,170.5C 521.167,158.833 521.167,147.167 522.5,135.5C 523.906,135.027 524.573,134.027 524.5,132.5C 525.5,132.167 526.167,131.5 526.5,130.5C 528.404,130.262 529.738,129.262 530.5,127.5C 533.067,127.279 535.401,126.612 537.5,125.5 Z"/></g>
<g><path style="opacity:0.835" fill="#9377d1" d="M 520.5,84.5 C 520.833,84.5 521.167,84.5 521.5,84.5C 521.5,96.8333 521.5,109.167 521.5,121.5C 521.5,122.167 521.833,122.5 522.5,122.5C 522.44,123.043 522.107,123.376 521.5,123.5C 520.501,110.517 520.168,97.5171 520.5,84.5 Z"/></g>
<g><path style="opacity:1" fill="#6f45c3" d="M 403.5,88.5 C 404.5,90.1667 405.833,91.5 407.5,92.5C 408.973,95.4519 408.64,98.1186 406.5,100.5C 405.5,100.833 404.833,101.5 404.5,102.5C 400.586,102.889 396.92,102.222 393.5,100.5C 392.769,95.9275 393.769,91.9275 396.5,88.5C 398.833,87.1667 401.167,87.1667 403.5,88.5 Z"/></g>
<g><path style="opacity:0.31" fill="#d4cae7" d="M 403.5,88.5 C 405.833,88.8333 407.167,90.1667 407.5,92.5C 405.833,91.5 404.5,90.1667 403.5,88.5 Z"/></g>
<g><path style="opacity:1" fill="#673cc0" d="M 645.5,91.5 C 647.822,93.664 650.489,95.3307 653.5,96.5C 654.419,99.0892 656.086,101.089 658.5,102.5C 658.427,104.027 659.094,105.027 660.5,105.5C 661.338,105.842 661.672,106.508 661.5,107.5C 661.402,109.553 662.069,111.22 663.5,112.5C 663.5,112.833 663.5,113.167 663.5,113.5C 663.5,115.167 663.5,116.833 663.5,118.5C 659.167,118.5 654.833,118.5 650.5,118.5C 649.214,115.244 647.88,111.911 646.5,108.5C 645.833,105.833 644.167,104.167 641.5,103.5C 640.713,101.896 639.38,101.229 637.5,101.5C 636.041,101.567 634.708,101.234 633.5,100.5C 629.019,99.3516 624.352,99.1849 619.5,100C 616.975,100.424 614.975,101.59 613.5,103.5C 609.435,105.233 606.768,108.233 605.5,112.5C 603.552,114.32 602.552,116.654 602.5,119.5C 600.823,123.545 600.156,127.878 600.5,132.5C 600.062,143.427 601.395,154.093 604.5,164.5C 604.75,166.674 605.75,168.341 607.5,169.5C 609.233,173.565 612.233,176.232 616.5,177.5C 618.919,179.862 621.919,180.862 625.5,180.5C 627.134,181.161 628.967,181.494 631,181.5C 634.451,181.579 637.618,180.913 640.5,179.5C 642.553,179.598 644.22,178.931 645.5,177.5C 647.404,177.262 648.738,176.262 649.5,174.5C 651.465,167.24 652.132,159.573 651.5,151.5C 644.018,150.508 636.352,150.175 628.5,150.5C 628.5,147.167 628.5,143.833 628.5,140.5C 640.5,140.5 652.5,140.5 664.5,140.5C 664.667,152.838 664.5,165.171 664,177.5C 662.961,178.244 662.461,179.244 662.5,180.5C 661.833,181.833 660.833,182.833 659.5,183.5C 657.973,183.427 656.973,184.094 656.5,185.5C 654.181,185.992 652.181,186.992 650.5,188.5C 649.791,189.404 648.791,189.737 647.5,189.5C 644.848,189.41 642.515,190.076 640.5,191.5C 639.833,191.5 639.167,191.5 638.5,191.5C 630.804,191.646 623.138,191.313 615.5,190.5C 614.209,190.737 613.209,190.404 612.5,189.5C 610.819,187.992 608.819,186.992 606.5,186.5C 606.027,185.094 605.027,184.427 603.5,184.5C 601.5,181.833 599.167,179.5 596.5,177.5C 596.262,175.596 595.262,174.262 593.5,173.5C 591.375,170.912 590.042,167.912 589.5,164.5C 589.245,160.2 588.245,156.2 586.5,152.5C 586.5,145.5 586.5,138.5 586.5,131.5C 587.563,127.361 588.23,123.028 588.5,118.5C 588.528,115.084 589.528,112.084 591.5,109.5C 592.674,108.486 593.34,107.153 593.5,105.5C 594.906,105.027 595.573,104.027 595.5,102.5C 598.5,100.167 601.167,97.5 603.5,94.5C 606.485,93.6743 609.151,92.341 611.5,90.5C 614.428,90.4349 617.095,89.7682 619.5,88.5C 624.316,87.3503 629.316,87.1837 634.5,88C 638.529,88.4162 642.196,89.5829 645.5,91.5 Z"/></g>
<g><path style="opacity:0.922" fill="#b5a0dc" d="M 619.5,88.5 C 617.095,89.7682 614.428,90.4349 611.5,90.5C 613.838,88.9605 616.505,88.2938 619.5,88.5 Z"/></g>
<g><path style="opacity:0.253" fill="#ddd6ea" d="M 611.5,90.5 C 609.151,92.341 606.485,93.6743 603.5,94.5C 605.579,92.127 608.246,90.7936 611.5,90.5 Z"/></g>
<g><path style="opacity:0.253" fill="#e1dbec" d="M 645.5,91.5 C 648.803,92.1514 651.47,93.818 653.5,96.5C 650.489,95.3307 647.822,93.664 645.5,91.5 Z"/></g>
<g><path style="opacity:1" fill="#c0ade0" d="M 396.5,88.5 C 393.769,91.9275 392.769,95.9275 393.5,100.5C 391.091,97.424 390.924,94.0907 393,90.5C 393.816,89.1772 394.983,88.5106 396.5,88.5 Z"/></g>
<g><path style="opacity:0.843" fill="#c9bae3" d="M 653.5,96.5 C 655.914,97.9108 657.581,99.9108 658.5,102.5C 656.086,101.089 654.419,99.0892 653.5,96.5 Z"/></g>
<g><path style="opacity:0.639" fill="#d2c8e7" d="M 603.5,94.5 C 601.167,97.5 598.5,100.167 595.5,102.5C 597.167,98.8333 599.833,96.1667 603.5,94.5 Z"/></g>
<g><path style="opacity:0.31" fill="#e8e5ee" d="M 406.5,100.5 C 406.5,101.833 405.833,102.5 404.5,102.5C 404.833,101.5 405.5,100.833 406.5,100.5 Z"/></g>
<g><path style="opacity:0.243" fill="#e4dfed" d="M 633.5,100.5 C 626.539,99.878 619.873,100.878 613.5,103.5C 614.975,101.59 616.975,100.424 619.5,100C 624.352,99.1849 629.019,99.3516 633.5,100.5 Z"/></g>
<g><path style="opacity:0.612" fill="#d3c8e7" d="M 393.5,100.5 C 396.92,102.222 400.586,102.889 404.5,102.5C 401.696,103.638 398.696,103.805 395.5,103C 394.244,102.583 393.577,101.75 393.5,100.5 Z"/></g>
<g><path style="opacity:0.388" fill="#dfd9eb" d="M 637.5,101.5 C 639.38,101.229 640.713,101.896 641.5,103.5C 639.847,103.34 638.514,102.674 637.5,101.5 Z"/></g>
<g><path style="opacity:0.71" fill="#d0c5e6" d="M 641.5,103.5 C 644.167,104.167 645.833,105.833 646.5,108.5C 644.5,107.167 642.833,105.5 641.5,103.5 Z"/></g>
<g><path style="opacity:0.322" fill="#e1dcec" d="M 595.5,102.5 C 595.573,104.027 594.906,105.027 593.5,105.5C 593.427,103.973 594.094,102.973 595.5,102.5 Z"/></g>
<g><path style="opacity:0.361" fill="#dcd5ea" d="M 658.5,102.5 C 659.906,102.973 660.573,103.973 660.5,105.5C 659.094,105.027 658.427,104.027 658.5,102.5 Z"/></g>
<g><path style="opacity:0.584" fill="#d7cee8" d="M 593.5,105.5 C 593.34,107.153 592.674,108.486 591.5,109.5C 591.229,107.62 591.896,106.287 593.5,105.5 Z"/></g>
<g><path style="opacity:0.243" fill="#e7e4ee" d="M 613.5,103.5 C 610.805,106.526 608.138,109.526 605.5,112.5C 606.768,108.233 609.435,105.233 613.5,103.5 Z"/></g>
<g><path style="opacity:0.247" fill="#e3deed" d="M 661.5,107.5 C 662.931,108.78 663.598,110.447 663.5,112.5C 662.069,111.22 661.402,109.553 661.5,107.5 Z"/></g>
<g><path style="opacity:0.203" fill="#e7e4ee" d="M 5.5,107.5 C 3.73353,117.336 1.73353,127.003 -0.5,136.5C -0.5,132.167 -0.5,127.833 -0.5,123.5C 1.00265,118.008 3.00265,112.675 5.5,107.5 Z"/></g>
<g><path style="opacity:0.404" fill="#dbd3e9" d="M 720.5,114.5 C 715.138,114.472 709.805,114.806 704.5,115.5C 707.55,114.065 710.883,113.398 714.5,113.5C 716.696,113.505 718.696,113.838 720.5,114.5 Z"/></g>
<g><path style="opacity:1" fill="#683ec1" d="M 463.5,114.5 C 465.905,115.768 468.572,116.435 471.5,116.5C 472.514,117.674 473.847,118.34 475.5,118.5C 476.492,118.328 477.158,118.662 477.5,119.5C 479.833,122.5 482.5,125.167 485.5,127.5C 485.427,129.027 486.094,130.027 487.5,130.5C 488.338,130.842 488.672,131.508 488.5,132.5C 488.402,134.553 489.069,136.22 490.5,137.5C 492.015,142.58 492.682,147.914 492.5,153.5C 492.468,157.581 492.135,161.581 491.5,165.5C 489.926,167.102 489.259,169.102 489.5,171.5C 489.008,173.819 488.008,175.819 486.5,177.5C 484.738,178.262 483.738,179.596 483.5,181.5C 482.833,182.833 481.833,183.833 480.5,184.5C 478.973,184.427 477.973,185.094 477.5,186.5C 475.421,188.873 472.754,190.206 469.5,190.5C 461.833,191.833 454.167,191.833 446.5,190.5C 444.819,188.992 442.819,187.992 440.5,187.5C 437.526,184.862 434.526,182.195 431.5,179.5C 430.416,176.996 429.083,174.663 427.5,172.5C 426.662,172.158 426.328,171.492 426.5,170.5C 426.435,167.572 425.768,164.905 424.5,162.5C 423.167,156.167 423.167,149.833 424.5,143.5C 425.768,141.095 426.435,138.428 426.5,135.5C 426.328,134.508 426.662,133.842 427.5,133.5C 428.674,132.486 429.34,131.153 429.5,129.5C 430.906,129.027 431.573,128.027 431.5,126.5C 433.833,124.833 435.833,122.833 437.5,120.5C 439.434,119.89 441.101,118.89 442.5,117.5C 449.139,113.699 456.139,112.699 463.5,114.5 Z M 464.5,126.5 C 465.514,127.674 466.847,128.34 468.5,128.5C 469.833,130.5 471.5,132.167 473.5,133.5C 473.427,135.027 474.094,136.027 475.5,136.5C 478.086,144.255 479.086,152.255 478.5,160.5C 477.388,162.599 476.721,164.933 476.5,167.5C 475.326,168.514 474.66,169.847 474.5,171.5C 472.413,172.585 471.08,174.251 470.5,176.5C 468.973,176.427 467.973,177.094 467.5,178.5C 466.508,178.328 465.842,178.662 465.5,179.5C 460.5,180.833 455.5,180.833 450.5,179.5C 450.158,178.662 449.492,178.328 448.5,178.5C 446.833,176.167 444.833,174.167 442.5,172.5C 442.573,170.973 441.906,169.973 440.5,169.5C 440.598,167.447 439.931,165.78 438.5,164.5C 437.007,156.09 437.34,147.757 439.5,139.5C 441.008,137.819 442.008,135.819 442.5,133.5C 443.833,132.833 444.833,131.833 445.5,130.5C 446.5,130.167 447.167,129.5 447.5,128.5C 449.153,128.34 450.486,127.674 451.5,126.5C 455.833,125.167 460.167,125.167 464.5,126.5 Z"/></g>
<g><path style="opacity:0.286" fill="#d4c9e7" d="M 463.5,114.5 C 466.495,114.294 469.162,114.96 471.5,116.5C 468.572,116.435 465.905,115.768 463.5,114.5 Z"/></g>
<g><path style="opacity:0.243" fill="#d7cde8" d="M 547.5,114.5 C 550.495,114.294 553.162,114.96 555.5,116.5C 552.572,116.435 549.905,115.768 547.5,114.5 Z"/></g>
<g><path style="opacity:1" fill="#6a40c1" d="M 720.5,114.5 C 722.415,114.216 724.081,114.549 725.5,115.5C 728.314,117.07 731.314,118.403 734.5,119.5C 734.973,120.906 735.973,121.573 737.5,121.5C 738.5,121.833 739.167,122.5 739.5,123.5C 740.08,125.749 741.413,127.415 743.5,128.5C 743.66,130.153 744.326,131.486 745.5,132.5C 746.558,133.6 747.392,134.934 748,136.5C 748.76,140.988 749.594,145.322 750.5,149.5C 750.5,152.5 750.5,155.5 750.5,158.5C 749.775,162.231 748.775,165.898 747.5,169.5C 745.659,171.849 744.326,174.515 743.5,177.5C 742.094,177.973 741.427,178.973 741.5,180.5C 739.833,181.5 738.5,182.833 737.5,184.5C 737.5,185.167 737.167,185.5 736.5,185.5C 734.973,185.427 733.973,186.094 733.5,187.5C 732.486,188.674 731.153,189.34 729.5,189.5C 720.909,191.673 712.243,192.007 703.5,190.5C 702.486,189.326 701.153,188.66 699.5,188.5C 698.508,188.672 697.842,188.338 697.5,187.5C 696.415,185.413 694.749,184.08 692.5,183.5C 691.833,182.167 690.833,181.167 689.5,180.5C 689.262,178.596 688.262,177.262 686.5,176.5C 685.662,176.158 685.328,175.492 685.5,174.5C 685.598,172.447 684.931,170.78 683.5,169.5C 683.59,166.848 682.924,164.515 681.5,162.5C 680.234,156.37 680.234,150.37 681.5,144.5C 682.945,141.063 683.945,137.397 684.5,133.5C 684.328,132.508 684.662,131.842 685.5,131.5C 687.547,129.45 689.214,127.117 690.5,124.5C 691.5,124.167 692.167,123.5 692.5,122.5C 694.749,121.92 696.415,120.587 697.5,118.5C 699.426,116.707 701.759,115.707 704.5,115.5C 709.805,114.806 715.138,114.472 720.5,114.5 Z M 719.5,125.5 C 719.842,126.338 720.508,126.672 721.5,126.5C 722.514,127.674 723.847,128.34 725.5,128.5C 725.842,129.338 726.508,129.672 727.5,129.5C 728.124,131.754 729.457,133.421 731.5,134.5C 731.992,136.819 732.992,138.819 734.5,140.5C 735.331,147.131 735.664,153.798 735.5,160.5C 734.699,162.042 734.366,163.708 734.5,165.5C 732.805,167.897 731.472,170.563 730.5,173.5C 728.833,174.5 727.5,175.833 726.5,177.5C 724.847,177.66 723.514,178.326 722.5,179.5C 718.548,180.272 714.548,180.605 710.5,180.5C 709.791,179.596 708.791,179.263 707.5,179.5C 704.859,177.196 702.192,174.862 699.5,172.5C 699.672,171.508 699.338,170.842 698.5,170.5C 698.34,168.847 697.674,167.514 696.5,166.5C 695.944,162.16 695.277,157.827 694.5,153.5C 695.21,150.201 695.543,146.867 695.5,143.5C 696.738,141.786 697.405,139.786 697.5,137.5C 698.338,137.158 698.672,136.492 698.5,135.5C 699.906,135.027 700.573,134.027 700.5,132.5C 701.833,131.833 702.833,130.833 703.5,129.5C 705.027,129.573 706.027,128.906 706.5,127.5C 707.492,127.672 708.158,127.338 708.5,126.5C 712.119,125.756 715.785,125.423 719.5,125.5 Z"/></g>
<g><path style="opacity:1" fill="#6237bf" d="M 406.5,205.5 C 405.388,207.599 404.721,209.933 404.5,212.5C 403.094,212.973 402.427,213.973 402.5,215.5C 401.738,217.262 400.404,218.262 398.5,218.5C 392.969,220.125 387.303,220.791 381.5,220.5C 381.167,220.5 380.833,220.5 380.5,220.5C 379.577,216.936 379.244,213.269 379.5,209.5C 380.5,209.5 381.5,209.5 382.5,209.5C 383.5,209.5 384.5,209.5 385.5,209.5C 389.002,209.924 391.335,208.59 392.5,205.5C 393.268,204.737 393.768,203.737 394,202.5C 394.5,173.502 394.667,144.502 394.5,115.5C 398.5,115.5 402.5,115.5 406.5,115.5C 406.5,145.5 406.5,175.5 406.5,205.5 Z"/></g>
<g><path style="opacity:0.405" fill="#c4b5e2" d="M 406.5,205.5 C 406.5,175.5 406.5,145.5 406.5,115.5C 402.5,115.5 398.5,115.5 394.5,115.5C 394.667,144.502 394.5,173.502 394,202.5C 393.768,203.737 393.268,204.737 392.5,205.5C 393.469,175.192 393.802,144.858 393.5,114.5C 398.167,114.5 402.833,114.5 407.5,114.5C 407.831,145.005 407.498,175.338 406.5,205.5 Z"/></g>
<g><path style="opacity:0.286" fill="#e0daec" d="M 471.5,116.5 C 473.38,116.229 474.713,116.896 475.5,118.5C 473.847,118.34 472.514,117.674 471.5,116.5 Z"/></g>
<g><path style="opacity:0.243" fill="#e9e6ef" d="M 555.5,116.5 C 557.027,116.427 558.027,117.094 558.5,118.5C 556.973,118.573 555.973,117.906 555.5,116.5 Z"/></g>
<g><path style="opacity:0.349" fill="#dcd5ea" d="M 725.5,115.5 C 729.165,115.502 732.165,116.835 734.5,119.5C 731.314,118.403 728.314,117.07 725.5,115.5 Z"/></g>
<g><path style="opacity:0.573" fill="#d9d1e9" d="M 529.5,116.5 C 529.027,117.906 528.027,118.573 526.5,118.5C 526.973,117.094 527.973,116.427 529.5,116.5 Z"/></g>
<g><path style="opacity:0.388" fill="#d7cee8" d="M 605.5,112.5 C 605.065,115.157 604.065,117.491 602.5,119.5C 602.552,116.654 603.552,114.32 605.5,112.5 Z"/></g>
<g><path style="opacity:0.478" fill="#d9d1e9" d="M 442.5,117.5 C 441.101,118.89 439.434,119.89 437.5,120.5C 438.401,118.273 440.067,117.273 442.5,117.5 Z"/></g>
<g><path style="opacity:0.243" fill="#e2ddec" d="M 558.5,118.5 C 561.5,119.5 563.5,121.5 564.5,124.5C 562.167,122.833 560.167,120.833 558.5,118.5 Z"/></g>
<g><path style="opacity:0.933" fill="#9476d1" d="M 663.5,113.5 C 664.461,115.265 664.795,117.265 664.5,119.5C 659.637,119.819 654.97,119.486 650.5,118.5C 654.833,118.5 659.167,118.5 663.5,118.5C 663.5,116.833 663.5,115.167 663.5,113.5 Z"/></g>
<g><path style="opacity:0.286" fill="#dcd5ea" d="M 477.5,119.5 C 481.167,121.167 483.833,123.833 485.5,127.5C 482.5,125.167 479.833,122.5 477.5,119.5 Z"/></g>
<g><path style="opacity:0.553" fill="#cfc5e5" d="M 526.5,118.5 C 525.5,120.167 524.167,121.5 522.5,122.5C 521.833,122.5 521.5,122.167 521.5,121.5C 522.922,120.075 524.589,119.075 526.5,118.5 Z"/></g>
<g><path style="opacity:0.286" fill="#dcd5ea" d="M 734.5,119.5 C 736.027,119.427 737.027,120.094 737.5,121.5C 735.973,121.573 734.973,120.906 734.5,119.5 Z"/></g>
<g><path style="opacity:0.424" fill="#e3dfed" d="M 437.5,120.5 C 435.833,122.833 433.833,124.833 431.5,126.5C 432.5,123.5 434.5,121.5 437.5,120.5 Z"/></g>
<g><path style="opacity:0.973" fill="#bba7de" d="M 697.5,118.5 C 696.415,120.587 694.749,121.92 692.5,122.5C 693.585,120.413 695.251,119.08 697.5,118.5 Z"/></g>
<g><path style="opacity:0.349" fill="#e9e6ef" d="M 692.5,122.5 C 692.167,123.5 691.5,124.167 690.5,124.5C 690.5,123.167 691.167,122.5 692.5,122.5 Z"/></g>
<g><path style="opacity:0.596" fill="#c1b1e0" d="M 464.5,126.5 C 460.167,125.167 455.833,125.167 451.5,126.5C 453.29,125.003 455.456,124.336 458,124.5C 460.544,124.336 462.71,125.003 464.5,126.5 Z"/></g>
<g><path style="opacity:0.624" fill="#b7a4dd" d="M 719.5,125.5 C 715.785,125.423 712.119,125.756 708.5,126.5C 710.29,125.003 712.456,124.336 715,124.5C 716.707,124.508 718.207,124.842 719.5,125.5 Z"/></g>
<g><path style="opacity:0.209" fill="#f0eff1" d="M 301.5,125.5 C 303.423,129.029 304.089,133.029 303.5,137.5C 302.383,133.705 301.717,129.705 301.5,125.5 Z"/></g>
<g><path style="opacity:0.243" fill="#e2deec" d="M 537.5,125.5 C 535.401,126.612 533.067,127.279 530.5,127.5C 532.438,125.837 534.772,125.171 537.5,125.5 Z"/></g>
<g><path style="opacity:0.322" fill="#dfd9eb" d="M 564.5,124.5 C 565.906,124.973 566.573,125.973 566.5,127.5C 565.094,127.027 564.427,126.027 564.5,124.5 Z"/></g>
<g><path style="opacity:0.467" fill="#ccc0e4" d="M 588.5,118.5 C 588.23,123.028 587.563,127.361 586.5,131.5C 586.156,126.878 586.823,122.545 588.5,118.5 Z"/></g>
<g><path style="opacity:0.361" fill="#dad2ea" d="M 602.5,119.5 C 602.23,124.028 601.563,128.361 600.5,132.5C 600.156,127.878 600.823,123.545 602.5,119.5 Z"/></g>
<g><path style="opacity:0.286" fill="#e4e0ed" d="M 451.5,126.5 C 450.486,127.674 449.153,128.34 447.5,128.5C 448.287,126.896 449.62,126.229 451.5,126.5 Z"/></g>
<g><path style="opacity:0.369" fill="#e5e1ed" d="M 464.5,126.5 C 466.38,126.229 467.713,126.896 468.5,128.5C 466.847,128.34 465.514,127.674 464.5,126.5 Z"/></g>
<g><path style="opacity:0.349" fill="#e4e0ed" d="M 545.5,126.5 C 547.38,126.229 548.713,126.896 549.5,128.5C 547.847,128.34 546.514,127.674 545.5,126.5 Z"/></g>
<g><path style="opacity:0.314" fill="#eceaf0" d="M 721.5,126.5 C 723.38,126.229 724.713,126.896 725.5,128.5C 723.847,128.34 722.514,127.674 721.5,126.5 Z"/></g>
<g><path style="opacity:0.314" fill="#dcd4ea" d="M 739.5,123.5 C 741.587,124.585 742.92,126.251 743.5,128.5C 741.413,127.415 740.08,125.749 739.5,123.5 Z"/></g>
<g><path style="opacity:0.404" fill="#dad3e9" d="M 431.5,126.5 C 431.573,128.027 430.906,129.027 429.5,129.5C 429.427,127.973 430.094,126.973 431.5,126.5 Z"/></g>
<g><path style="opacity:0.243" fill="#e7e4ee" d="M 530.5,127.5 C 529.738,129.262 528.404,130.262 526.5,130.5C 527.262,128.738 528.596,127.738 530.5,127.5 Z"/></g>
<g><path style="opacity:0.247" fill="#e2deec" d="M 566.5,127.5 C 568.104,128.287 568.771,129.62 568.5,131.5C 567.326,130.486 566.66,129.153 566.5,127.5 Z"/></g>
<g><path style="opacity:0.314" fill="#dbd3ea" d="M 690.5,124.5 C 689.214,127.117 687.547,129.45 685.5,131.5C 686.01,128.326 687.677,125.992 690.5,124.5 Z"/></g>
<g><path style="opacity:0.286" fill="#ebe9ef" d="M 706.5,127.5 C 706.027,128.906 705.027,129.573 703.5,129.5C 703.973,128.094 704.973,127.427 706.5,127.5 Z"/></g>
<g><path style="opacity:0.369" fill="#e2ddec" d="M 468.5,128.5 C 471.167,129.167 472.833,130.833 473.5,133.5C 471.5,132.167 469.833,130.5 468.5,128.5 Z"/></g>
<g><path style="opacity:0.384" fill="#e0daeb" d="M 485.5,127.5 C 486.906,127.973 487.573,128.973 487.5,130.5C 486.094,130.027 485.427,129.027 485.5,127.5 Z"/></g>
<g><path style="opacity:0.475" fill="#d6cce8" d="M 549.5,128.5 C 551.833,128.833 553.167,130.167 553.5,132.5C 551.833,131.5 550.5,130.167 549.5,128.5 Z"/></g>
<g><path style="opacity:0.294" fill="#e0daeb" d="M 743.5,128.5 C 745.104,129.287 745.771,130.62 745.5,132.5C 744.326,131.486 743.66,130.153 743.5,128.5 Z"/></g>
<g><path style="opacity:0.549" fill="#dad2e9" d="M 429.5,129.5 C 429.34,131.153 428.674,132.486 427.5,133.5C 427.229,131.62 427.896,130.287 429.5,129.5 Z"/></g>
<g><path style="opacity:0.286" fill="#dfd9eb" d="M 445.5,130.5 C 444.833,131.833 443.833,132.833 442.5,133.5C 442.5,131.5 443.5,130.5 445.5,130.5 Z"/></g>
<g><path style="opacity:0.286" fill="#dad0e9" d="M 727.5,129.5 C 729.531,130.539 730.864,132.205 731.5,134.5C 729.457,133.421 728.124,131.754 727.5,129.5 Z"/></g>
<g><path style="opacity:0.243" fill="#e4dfed" d="M 524.5,132.5 C 524.573,134.027 523.906,135.027 522.5,135.5C 522.427,133.973 523.094,132.973 524.5,132.5 Z"/></g>
<g><path style="opacity:0.286" fill="#e5e1ed" d="M 700.5,132.5 C 700.573,134.027 699.906,135.027 698.5,135.5C 698.427,133.973 699.094,132.973 700.5,132.5 Z"/></g>
<g><path style="opacity:0.286" fill="#e5e1ed" d="M 473.5,133.5 C 474.906,133.973 475.573,134.973 475.5,136.5C 474.094,136.027 473.427,135.027 473.5,133.5 Z"/></g>
<g><path style="opacity:0.286" fill="#e3deec" d="M 488.5,132.5 C 489.931,133.78 490.598,135.447 490.5,137.5C 489.069,136.22 488.402,134.553 488.5,132.5 Z"/></g>
<g><path style="opacity:0.286" fill="#e4e0ed" d="M 442.5,133.5 C 442.008,135.819 441.008,137.819 439.5,139.5C 439.461,136.911 440.461,134.911 442.5,133.5 Z"/></g>
<g><path style="opacity:0.29" fill="#e2ddec" d="M 554.5,134.5 C 556.104,135.287 556.771,136.62 556.5,138.5C 555.326,137.486 554.66,136.153 554.5,134.5 Z"/></g>
<g><path style="opacity:0.835" fill="#9c81d4" d="M 522.5,135.5 C 521.167,147.167 521.167,158.833 522.5,170.5C 521.883,170.389 521.383,170.056 521,169.5C 520.333,158.5 520.333,147.5 521,136.5C 521.383,135.944 521.883,135.611 522.5,135.5 Z"/></g>
<g><path style="opacity:0.286" fill="#e0dbec" d="M 731.5,134.5 C 733.539,135.911 734.539,137.911 734.5,140.5C 732.992,138.819 731.992,136.819 731.5,134.5 Z"/></g>
<g><path style="opacity:0.863" fill="#c1b0e1" d="M 426.5,135.5 C 426.435,138.428 425.768,141.095 424.5,143.5C 424.294,140.505 424.96,137.838 426.5,135.5 Z"/></g>
<g><path style="opacity:0.243" fill="#e5e1ed" d="M 627.5,140.5 C 639.989,139.505 652.656,139.171 665.5,139.5C 665.667,152.504 665.5,165.504 665,178.5C 664.292,179.381 663.458,180.047 662.5,180.5C 662.461,179.244 662.961,178.244 664,177.5C 664.5,165.171 664.667,152.838 664.5,140.5C 652.5,140.5 640.5,140.5 628.5,140.5C 628.167,140.5 627.833,140.5 627.5,140.5 Z"/></g>
<g><path style="opacity:0.478" fill="#d5cce8" d="M 697.5,137.5 C 697.405,139.786 696.738,141.786 695.5,143.5C 695.259,141.102 695.926,139.102 697.5,137.5 Z"/></g>
<g><path style="opacity:0.714" fill="#cbbde4" d="M 684.5,133.5 C 683.945,137.397 682.945,141.063 681.5,144.5C 681.432,140.43 682.432,136.763 684.5,133.5 Z"/></g>
<g><path style="opacity:0.287" fill="#e2ddec" d="M 734.5,140.5 C 736.048,144.034 736.714,147.867 736.5,152C 736.498,155.021 736.164,157.854 735.5,160.5C 735.664,153.798 735.331,147.131 734.5,140.5 Z"/></g>
<g><path style="opacity:0.933" fill="#896acd" d="M 627.5,140.5 C 627.833,140.5 628.167,140.5 628.5,140.5C 628.5,143.833 628.5,147.167 628.5,150.5C 636.352,150.175 644.018,150.508 651.5,151.5C 651.167,151.5 650.833,151.5 650.5,151.5C 642.833,151.5 635.167,151.5 627.5,151.5C 627.5,147.833 627.5,144.167 627.5,140.5 Z"/></g>
<g><path style="opacity:0.369" fill="#d0c4e6" d="M 475.5,136.5 C 477.446,138.734 478.613,141.401 479,144.5C 479.817,150.016 479.651,155.35 478.5,160.5C 479.086,152.255 478.086,144.255 475.5,136.5 Z"/></g>
<g><path style="opacity:0.718" fill="#ac94d9" d="M 556.5,138.5 C 557.222,138.918 557.722,139.584 558,140.5C 560.096,148.376 559.929,156.043 557.5,163.5C 558.918,155.099 558.585,146.766 556.5,138.5 Z"/></g>
<g><path style="opacity:0.486" fill="#c9bde3" d="M 650.5,151.5 C 650.833,151.5 651.167,151.5 651.5,151.5C 652.132,159.573 651.465,167.24 649.5,174.5C 650.466,166.92 650.799,159.253 650.5,151.5 Z"/></g>
<g><path style="opacity:0.616" fill="#b8a5dd" d="M 439.5,139.5 C 437.34,147.757 437.007,156.09 438.5,164.5C 436.019,157.037 435.853,149.37 438,141.5C 438.278,140.584 438.778,139.918 439.5,139.5 Z"/></g>
<g><path style="opacity:0.416" fill="#d3c8e7" d="M 586.5,152.5 C 588.245,156.2 589.245,160.2 589.5,164.5C 587.755,160.8 586.755,156.8 586.5,152.5 Z"/></g>
<g><path style="opacity:0.827" fill="#c9bbe4" d="M 478.5,160.5 C 478.829,163.228 478.163,165.562 476.5,167.5C 476.721,164.933 477.388,162.599 478.5,160.5 Z"/></g>
<g><path style="opacity:0.286" fill="#dfd8eb" d="M 681.5,162.5 C 682.924,164.515 683.59,166.848 683.5,169.5C 682.076,167.485 681.41,165.152 681.5,162.5 Z"/></g>
<g><path style="opacity:0.286" fill="#d8d0e9" d="M 424.5,162.5 C 425.768,164.905 426.435,167.572 426.5,170.5C 424.96,168.162 424.294,165.495 424.5,162.5 Z"/></g>
<g><path style="opacity:0.253" fill="#e0daeb" d="M 604.5,164.5 C 606.25,165.659 607.25,167.326 607.5,169.5C 605.75,168.341 604.75,166.674 604.5,164.5 Z"/></g>
<g><path style="opacity:0.29" fill="#e4dfed" d="M 438.5,164.5 C 439.931,165.78 440.598,167.447 440.5,169.5C 439.069,168.22 438.402,166.553 438.5,164.5 Z"/></g>
<g><path style="opacity:0.243" fill="#dad2e9" d="M 571.5,163.5 C 571.706,166.495 571.04,169.162 569.5,171.5C 569.565,168.572 570.232,165.905 571.5,163.5 Z"/></g>
<g><path style="opacity:0.651" fill="#cabce4" d="M 491.5,165.5 C 491.405,167.786 490.738,169.786 489.5,171.5C 489.259,169.102 489.926,167.102 491.5,165.5 Z"/></g>
<g><path style="opacity:0.357" fill="#e3deec" d="M 696.5,166.5 C 697.674,167.514 698.34,168.847 698.5,170.5C 696.896,169.713 696.229,168.38 696.5,166.5 Z"/></g>
<g><path style="opacity:0.522" fill="#d1c5e6" d="M 734.5,165.5 C 734.47,168.852 733.137,171.518 730.5,173.5C 731.472,170.563 732.805,167.897 734.5,165.5 Z"/></g>
<g><path style="opacity:0.424" fill="#dad2e9" d="M 476.5,167.5 C 476.771,169.38 476.104,170.713 474.5,171.5C 474.66,169.847 475.326,168.514 476.5,167.5 Z"/></g>
<g><path style="opacity:0.592" fill="#dbd4ea" d="M 607.5,169.5 C 610.526,172.195 613.526,174.862 616.5,177.5C 612.233,176.232 609.233,173.565 607.5,169.5 Z"/></g>
<g><path style="opacity:0.286" fill="#ded7eb" d="M 683.5,169.5 C 684.931,170.78 685.598,172.447 685.5,174.5C 684.069,173.22 683.402,171.553 683.5,169.5 Z"/></g>
<g><path style="opacity:0.286" fill="#e0d9eb" d="M 747.5,169.5 C 747.206,172.754 745.873,175.421 743.5,177.5C 744.326,174.515 745.659,171.849 747.5,169.5 Z"/></g>
<g><path style="opacity:0.329" fill="#e3ddec" d="M 440.5,169.5 C 441.906,169.973 442.573,170.973 442.5,172.5C 441.094,172.027 440.427,171.027 440.5,169.5 Z"/></g>
<g><path style="opacity:0.361" fill="#dcd4ea" d="M 522.5,170.5 C 523.906,170.973 524.573,171.973 524.5,173.5C 523.094,173.027 522.427,172.027 522.5,170.5 Z"/></g>
<g><path style="opacity:0.478" fill="#e2ddec" d="M 442.5,172.5 C 444.833,174.167 446.833,176.167 448.5,178.5C 445.5,177.5 443.5,175.5 442.5,172.5 Z"/></g>
<g><path style="opacity:0.678" fill="#d7cfe8" d="M 699.5,172.5 C 702.192,174.862 704.859,177.196 707.5,179.5C 703.571,178.569 700.905,176.236 699.5,172.5 Z"/></g>
<g><path style="opacity:0.369" fill="#e6e2ed" d="M 474.5,171.5 C 473.92,173.749 472.587,175.415 470.5,176.5C 471.08,174.251 472.413,172.585 474.5,171.5 Z"/></g>
<g><path style="opacity:0.447" fill="#d3c9e7" d="M 569.5,171.5 C 569.598,173.553 568.931,175.22 567.5,176.5C 567.402,174.447 568.069,172.78 569.5,171.5 Z"/></g>
<g><path style="opacity:0.243" fill="#e0d9eb" d="M 593.5,173.5 C 595.262,174.262 596.262,175.596 596.5,177.5C 594.738,176.738 593.738,175.404 593.5,173.5 Z"/></g>
<g><path style="opacity:0.294" fill="#e3deec" d="M 427.5,172.5 C 429.083,174.663 430.416,176.996 431.5,179.5C 428.888,177.948 427.555,175.614 427.5,172.5 Z"/></g>
<g><path style="opacity:0.243" fill="#eae7ef" d="M 526.5,175.5 C 528.404,175.738 529.738,176.738 530.5,178.5C 528.596,178.262 527.262,177.262 526.5,175.5 Z"/></g>
<g><path style="opacity:0.659" fill="#d1c6e6" d="M 556.5,167.5 C 555.777,173.221 552.777,177.221 547.5,179.5C 546.833,179.5 546.167,179.5 545.5,179.5C 550.556,176.777 554.223,172.777 556.5,167.5 Z"/></g>
<g><path style="opacity:0.4" fill="#e1dbeb" d="M 649.5,174.5 C 648.738,176.262 647.404,177.262 645.5,177.5C 646.262,175.738 647.596,174.738 649.5,174.5 Z"/></g>
<g><path style="opacity:0.816" fill="#bca8df" d="M 730.5,173.5 C 730.167,175.833 728.833,177.167 726.5,177.5C 727.5,175.833 728.833,174.5 730.5,173.5 Z"/></g>
<g><path style="opacity:0.522" fill="#ded8eb" d="M 470.5,176.5 C 470.027,177.906 469.027,178.573 467.5,178.5C 467.973,177.094 468.973,176.427 470.5,176.5 Z"/></g>
<g><path style="opacity:0.247" fill="#dfd9eb" d="M 645.5,177.5 C 644.22,178.931 642.553,179.598 640.5,179.5C 641.78,178.069 643.447,177.402 645.5,177.5 Z"/></g>
<g><path style="opacity:0.286" fill="#e4e0ed" d="M 686.5,176.5 C 688.262,177.262 689.262,178.596 689.5,180.5C 687.738,179.738 686.738,178.404 686.5,176.5 Z"/></g>
<g><path style="opacity:0.243" fill="#e2ddec" d="M 596.5,177.5 C 599.167,179.5 601.5,181.833 603.5,184.5C 600.167,183.167 597.833,180.833 596.5,177.5 Z"/></g>
<g><path style="opacity:0.494" fill="#d8cfe9" d="M 616.5,177.5 C 619.659,178.331 622.659,179.331 625.5,180.5C 621.919,180.862 618.919,179.862 616.5,177.5 Z"/></g>
<g><path style="opacity:0.314" fill="#e4e0ed" d="M 726.5,177.5 C 725.713,179.104 724.38,179.771 722.5,179.5C 723.514,178.326 724.847,177.66 726.5,177.5 Z"/></g>
<g><path style="opacity:0.286" fill="#e2dcec" d="M 743.5,177.5 C 743.573,179.027 742.906,180.027 741.5,180.5C 741.427,178.973 742.094,177.973 743.5,177.5 Z"/></g>
<g><path style="opacity:0.286" fill="#e6e2ed" d="M 486.5,177.5 C 486.262,179.404 485.262,180.738 483.5,181.5C 483.738,179.596 484.738,178.262 486.5,177.5 Z"/></g>
<g><path style="opacity:0.329" fill="#e0daeb" d="M 530.5,178.5 C 533.067,178.721 535.401,179.388 537.5,180.5C 536.833,180.5 536.167,180.5 535.5,180.5C 533.447,180.598 531.78,179.931 530.5,178.5 Z"/></g>
<g><path style="opacity:0.243" fill="#e3deed" d="M 567.5,176.5 C 567.25,178.674 566.25,180.341 564.5,181.5C 564.75,179.326 565.75,177.659 567.5,176.5 Z"/></g>
<g><path style="opacity:0.286" fill="#e4e0ed" d="M 431.5,179.5 C 434.526,182.195 437.526,184.862 440.5,187.5C 436.233,186.232 433.233,183.565 431.5,179.5 Z"/></g>
<g><path style="opacity:0.549" fill="#cbbfe4" d="M 450.5,179.5 C 455.5,180.833 460.5,180.833 465.5,179.5C 463.366,181.033 460.866,181.7 458,181.5C 455.134,181.7 452.634,181.033 450.5,179.5 Z"/></g>
<g><path style="opacity:0.882" fill="#9d81d4" d="M 545.5,179.5 C 546.167,179.5 546.833,179.5 547.5,179.5C 545.321,180.926 542.821,181.592 540,181.5C 538.293,181.492 536.793,181.158 535.5,180.5C 536.167,180.5 536.833,180.5 537.5,180.5C 540.237,180.599 542.904,180.265 545.5,179.5 Z"/></g>
<g><path style="opacity:0.875" fill="#9e84d4" d="M 640.5,179.5 C 637.618,180.913 634.451,181.579 631,181.5C 628.967,181.494 627.134,181.161 625.5,180.5C 630.527,180.497 635.527,180.164 640.5,179.5 Z"/></g>
<g><path style="opacity:0.522" fill="#cfc4e5" d="M 722.5,179.5 C 720.538,181.017 718.205,181.684 715.5,181.5C 713.631,181.493 711.964,181.16 710.5,180.5C 714.548,180.605 718.548,180.272 722.5,179.5 Z"/></g>
<g><path style="opacity:0.756" fill="#c2b3e1" d="M 127.5,189.5 C 126.532,187.393 126.198,185.059 126.5,182.5C 120.642,182.178 114.975,182.511 109.5,183.5C 109.5,184.833 109.5,186.167 109.5,187.5C 108.539,185.735 108.205,183.735 108.5,181.5C 114.833,181.5 121.167,181.5 127.5,181.5C 127.5,184.167 127.5,186.833 127.5,189.5 Z"/></g>
<g><path style="opacity:0.286" fill="#ebe9ef" d="M 689.5,180.5 C 690.833,181.167 691.833,182.167 692.5,183.5C 690.5,183.5 689.5,182.5 689.5,180.5 Z"/></g>
<g><path style="opacity:0.286" fill="#edecf0" d="M 741.5,180.5 C 741.167,182.833 739.833,184.167 737.5,184.5C 738.5,182.833 739.833,181.5 741.5,180.5 Z"/></g>
<g><path style="opacity:0.243" fill="#ebe8ef" d="M 564.5,181.5 C 563.5,184.5 561.5,186.5 558.5,187.5C 560.167,185.167 562.167,183.167 564.5,181.5 Z"/></g>
<g><path style="opacity:0.245" fill="#edecf0" d="M 522.5,184.5 C 521.833,185.833 521.167,187.167 520.5,188.5C 520.338,186.473 520.505,184.473 521,182.5C 521.717,183.044 522.217,183.711 522.5,184.5 Z"/></g>
<g><path style="opacity:0.243" fill="#eae8ef" d="M 659.5,183.5 C 659.027,184.906 658.027,185.573 656.5,185.5C 656.973,184.094 657.973,183.427 659.5,183.5 Z"/></g>
<g><path style="opacity:0.121" fill="#e9e6ef" d="M 193.5,185.5 C 193.59,188.152 192.924,190.485 191.5,192.5C 190.99,189.612 191.656,187.279 193.5,185.5 Z"/></g>
<g><path style="opacity:0.286" fill="#e6e2ed" d="M 480.5,184.5 C 480.027,185.906 479.027,186.573 477.5,186.5C 477.973,185.094 478.973,184.427 480.5,184.5 Z"/></g>
<g><path style="opacity:0.4" fill="#d8d0e9" d="M 603.5,184.5 C 605.027,184.427 606.027,185.094 606.5,186.5C 604.973,186.573 603.973,185.906 603.5,184.5 Z"/></g>
<g><path style="opacity:0.29" fill="#dfd9eb" d="M 656.5,185.5 C 655.089,187.539 653.089,188.539 650.5,188.5C 652.181,186.992 654.181,185.992 656.5,185.5 Z"/></g>
<g><path style="opacity:0.329" fill="#d3c7e7" d="M 692.5,183.5 C 694.749,184.08 696.415,185.413 697.5,187.5C 695.251,186.92 693.585,185.587 692.5,183.5 Z"/></g>
<g><path style="opacity:0.286" fill="#eae8ef" d="M 736.5,185.5 C 736.027,186.906 735.027,187.573 733.5,187.5C 733.973,186.094 734.973,185.427 736.5,185.5 Z"/></g>
<g><path style="opacity:0.38" fill="#d7cee8" d="M 524.5,186.5 C 526.027,186.427 527.027,187.094 527.5,188.5C 525.973,188.573 524.973,187.906 524.5,186.5 Z"/></g>
<g><path style="opacity:0.314" fill="#ddd6eb" d="M 440.5,187.5 C 442.819,187.992 444.819,188.992 446.5,190.5C 443.911,190.539 441.911,189.539 440.5,187.5 Z"/></g>
<g><path style="opacity:0.243" fill="#eae8ef" d="M 558.5,187.5 C 558.027,188.906 557.027,189.573 555.5,189.5C 555.973,188.094 556.973,187.427 558.5,187.5 Z"/></g>
<g><path style="opacity:0.247" fill="#e3deec" d="M 606.5,186.5 C 608.819,186.992 610.819,187.992 612.5,189.5C 609.911,189.539 607.911,188.539 606.5,186.5 Z"/></g>
<g><path style="opacity:0.243" fill="#e1dbec" d="M 527.5,188.5 C 529.153,188.66 530.486,189.326 531.5,190.5C 529.62,190.771 528.287,190.104 527.5,188.5 Z"/></g>
<g><path style="opacity:0.286" fill="#e1dcec" d="M 699.5,188.5 C 701.153,188.66 702.486,189.326 703.5,190.5C 701.62,190.771 700.287,190.104 699.5,188.5 Z"/></g>
<g><path style="opacity:0.243" fill="#e6e2ee" d="M 647.5,189.5 C 645.485,190.924 643.152,191.59 640.5,191.5C 642.515,190.076 644.848,189.41 647.5,189.5 Z"/></g>
<g><path style="opacity:0.286" fill="#d7cde8" d="M 446.5,190.5 C 454.167,191.833 461.833,191.833 469.5,190.5C 465.946,191.984 462.112,192.651 458,192.5C 453.888,192.651 450.054,191.984 446.5,190.5 Z"/></g>
<g><path style="opacity:0.671" fill="#c6b8e2" d="M 615.5,190.5 C 623.138,191.313 630.804,191.646 638.5,191.5C 635.518,192.165 632.352,192.498 629,192.5C 624.228,192.692 619.728,192.025 615.5,190.5 Z"/></g>
<g><path style="opacity:0.286" fill="#d7cee8" d="M 729.5,189.5 C 729.082,190.222 728.416,190.722 727.5,191C 719.298,193.149 711.298,192.982 703.5,190.5C 712.243,192.007 720.909,191.673 729.5,189.5 Z"/></g>
<g><path style="opacity:0.194" fill="#d6cce8" d="M 193.5,182.5 C 193.5,150.167 193.5,117.833 193.5,85.5C 188.167,85.5 182.833,85.5 177.5,85.5C 177.833,120.84 177.5,156.173 176.5,191.5C 174.733,196.705 171.733,201.038 167.5,204.5C 156.167,208.5 144.833,208.5 133.5,204.5C 131.167,200.833 128.833,197.167 126.5,193.5C 125.513,190.232 125.18,186.898 125.5,183.5C 120.167,183.5 114.833,183.5 109.5,183.5C 114.975,182.511 120.642,182.178 126.5,182.5C 126.198,185.059 126.532,187.393 127.5,189.5C 133.201,204.144 143.868,209.31 159.5,205C 167.775,202.393 172.941,196.893 175,188.5C 175.5,153.835 175.667,119.168 175.5,84.5C 181.833,84.5 188.167,84.5 194.5,84.5C 194.832,117.338 194.498,150.004 193.5,182.5 Z"/></g>
<g><path style="opacity:0.163" fill="#e9e6ee" d="M 109.5,189.5 C 111.741,193.983 114.075,198.65 116.5,203.5C 120.247,207.918 124.58,211.584 129.5,214.5C 156.365,224.967 177.031,217.967 191.5,193.5C 189.215,202.89 183.882,210.057 175.5,215C 171.186,217.66 166.519,219.327 161.5,220C 144.377,223.514 129.544,219.348 117,207.5C 113.111,202.058 110.611,196.058 109.5,189.5 Z"/></g>
<g><path style="opacity:0.161" fill="#e1daec" d="M 392.5,205.5 C 391.335,208.59 389.002,209.924 385.5,209.5C 387.929,208.449 390.262,207.116 392.5,205.5 Z"/></g>
<g><path style="opacity:0.161" fill="#dbd4ea" d="M 406.5,205.5 C 406.829,208.228 406.163,210.562 404.5,212.5C 404.721,209.933 405.388,207.599 406.5,205.5 Z"/></g>
<g><path style="opacity:0.169" fill="#e9e6ee" d="M -0.5,163.5 C 1.34343,179.523 5.17677,195.19 11,210.5C 34.1398,261.812 73.3065,292.812 128.5,303.5C 115.702,302.551 103.369,299.551 91.5,294.5C 78.8553,288.848 66.8553,282.181 55.5,274.5C 44.434,264.103 34.1007,253.103 24.5,241.5C 19.3246,233.152 14.658,224.485 10.5,215.5C 6.55377,204.002 2.8871,192.668 -0.5,181.5C -0.5,175.5 -0.5,169.5 -0.5,163.5 Z"/></g>
<g><path style="opacity:0.375" fill="#d9d2e9" d="M 382.5,209.5 C 381.5,209.5 380.5,209.5 379.5,209.5C 379.244,213.269 379.577,216.936 380.5,220.5C 378.577,216.971 377.911,212.971 378.5,208.5C 380.099,208.232 381.432,208.566 382.5,209.5 Z"/></g>
<g><path style="opacity:0.174" fill="#e7e4ee" d="M 303.5,162.5 C 302.284,194.819 291.951,223.819 272.5,249.5C 261.357,261.984 249.024,272.984 235.5,282.5C 215.263,294.017 193.929,301.684 171.5,305.5C 158.167,305.5 144.833,305.5 131.5,305.5C 131.5,304.833 131.5,304.167 131.5,303.5C 152.858,305.854 173.858,304.021 194.5,298C 259.122,275.548 295.456,230.382 303.5,162.5 Z"/></g>
<g><path style="opacity:0.161" fill="#e3deec" d="M 404.5,212.5 C 404.573,214.027 403.906,215.027 402.5,215.5C 402.427,213.973 403.094,212.973 404.5,212.5 Z"/></g>
<g><path style="opacity:0.259" fill="#e0daeb" d="M 398.5,218.5 C 397.319,220.067 395.653,220.901 393.5,221C 389.311,221.812 385.311,221.645 381.5,220.5C 387.303,220.791 392.969,220.125 398.5,218.5 Z"/></g>
</svg>
